<svg width="73" height="72" viewBox="0 0 73 72" fill="none" xmlns="http://www.w3.org/2000/svg">
<g clip-path="url(#clip0_72_212)">
<path fill-rule="evenodd" clip-rule="evenodd" d="M14.7604 16.3471C18.8915 10.7636 24.8225 7.58056 31.5472 5.83176C39.7865 3.68911 48.6052 1.15253 55.8268 5.6676C64.7926 11.2733 73.4236 20.6475 71.9875 31.1159C70.5866 41.329 57.9485 44.0957 49.7061 50.2869C40.3629 57.305 33.2155 71.8054 21.9398 68.709C10.6227 65.6011 8.86993 50.2571 7.27642 38.6351C6.15605 30.4639 9.85633 22.9751 14.7604 16.3471Z" fill="#DDF4FF"/>
<path d="M36.5 14.0625V15.75H16.25V14.0625C16.25 12.1978 17.7603 10.6875 19.625 10.6875H33.125C34.9897 10.6875 36.5 12.1978 36.5 14.0625Z" fill="#AAB2BD"/>
<path d="M36.5 36V39.375C36.5 41.2397 34.9897 42.75 33.125 42.75H19.625C17.7603 42.75 16.25 41.2397 16.25 39.375V36H36.5Z" fill="#AAB2BD"/>
<path d="M36.5 28.4062V36H16.25V28.4062V25.0312V15.75H36.5V25.0312V28.4062Z" fill="#69D6F4"/>
<path d="M33.125 32.625H19.625C19.625 28.8956 22.6456 25.875 26.375 25.875C28.2397 25.875 29.9272 26.6344 31.1506 27.8494C32.3656 29.0728 33.125 30.7603 33.125 32.625Z" fill="#E6E9ED"/>
<path d="M26.375 25.875C28.239 25.875 29.75 24.364 29.75 22.5C29.75 20.636 28.239 19.125 26.375 19.125C24.511 19.125 23 20.636 23 22.5C23 24.364 24.511 25.875 26.375 25.875Z" fill="#F0D0B4"/>
<path d="M55.8472 10.6875C54.2609 10.6875 52.7506 11.3119 51.6284 12.4341L50.8438 13.2188L50.0591 12.4341C48.9369 11.3119 47.4266 10.6875 45.8403 10.6875C42.5666 10.6875 39.9087 13.3284 39.875 16.5938V16.6528V17.2013C39.875 18.9563 40.6513 20.6184 41.9844 21.7575L50.8438 29.25L59.7031 21.7575C60.9772 20.6691 61.745 19.1081 61.8041 17.4375C61.8125 17.3616 61.8125 17.2772 61.8125 17.2013V16.6528C61.8125 13.3622 59.1378 10.6875 55.8472 10.6875Z" fill="#FF826E"/>
<path d="M56.75 38.5312C56.75 41.2059 54.9697 43.4672 52.5312 44.1928V42.75C52.5312 42.2859 52.3456 41.8641 52.0334 41.5603C51.7297 41.2481 51.3078 41.0625 50.8438 41.0625C49.9156 41.0625 49.1562 41.8219 49.1562 42.75V44.1844H49.1225C46.7009 43.4419 44.9375 41.1891 44.9375 38.5312C44.9375 35.2659 47.5784 32.625 50.8438 32.625C54.1091 32.625 56.75 35.2659 56.75 38.5312Z" fill="#FFEAA7"/>
<g clip-path="url(#clip1_72_212)">
<path d="M52.5312 44.1928V47.8125H50.8438H49.1562V44.1844V42.75C49.1562 41.8219 49.9156 41.0625 50.8438 41.0625C51.3078 41.0625 51.7297 41.2481 52.0334 41.5603C52.3456 41.8641 52.5312 42.2859 52.5312 42.75V44.1928Z" fill="#FCD770"/>
<path d="M41.5625 26.7188V28.4062H36.5V25.0312H41.5625V26.7188Z" fill="#FCD770"/>
<path d="M16.25 25.0312V28.4062H11.1875V26.7188V25.0312H16.25Z" fill="#FCD770"/>
</g>
<path d="M33.9688 33.4688V32.625C33.9688 29.4458 32.0028 26.7204 29.2243 25.5907C30.0605 24.8195 30.5938 23.7243 30.5938 22.5C30.5938 20.1738 28.7012 18.2812 26.375 18.2812C24.0488 18.2812 22.1562 20.1738 22.1562 22.5C22.1562 23.7243 22.6895 24.8195 23.5257 25.5907C20.7472 26.7204 18.7812 29.4458 18.7812 32.625V33.4688H33.9688ZM23.8438 22.5C23.8438 21.1044 24.9794 19.9688 26.375 19.9688C27.7706 19.9688 28.9062 21.1044 28.9062 22.5C28.9062 23.8956 27.7706 25.0312 26.375 25.0312C24.9794 25.0312 23.8438 23.8956 23.8438 22.5ZM26.375 26.7188C29.3458 26.7188 31.8104 28.9226 32.2213 31.7812H20.5287C20.9396 28.9226 23.4042 26.7188 26.375 26.7188Z" fill="black"/>
<path d="M23 38.5312H29.75V40.2188H23V38.5312Z" fill="black"/>
<path d="M55.8463 9.84375C54.0281 9.84375 52.3169 10.5525 51.0311 11.8384L50.8438 12.0257L50.6564 11.8384C49.3706 10.5525 47.6603 9.84375 45.8412 9.84375C42.0865 9.84375 39.0312 12.899 39.0312 16.6537V17.2013C39.0312 19.2077 39.9104 21.1027 41.4427 22.3996L50.8438 30.3553L60.2448 22.4004C61.7771 21.1036 62.6562 19.2085 62.6562 17.2021V16.6537C62.6562 12.899 59.601 9.84375 55.8463 9.84375ZM45.8412 11.5312C47.2089 11.5312 48.4956 12.0645 49.4634 13.0314L50.8438 14.4118L52.2241 13.0314C53.1911 12.0645 54.4786 11.5312 55.8463 11.5312C58.651 11.5312 60.9333 13.7967 60.9662 16.5938H54.455L53.2189 20.3012L50.988 15.8394L48.391 19.3022L46.2588 15.75H40.8031C41.2326 13.3554 43.3259 11.5312 45.8412 11.5312ZM59.1555 21.1112L50.8438 28.1447L42.532 21.1112C41.4402 20.1864 40.7964 18.8584 40.7314 17.4375H45.3028L48.234 22.3228L50.6995 19.0356L53.5311 24.6988L55.6708 18.2812H60.8532C60.6169 19.3764 60.028 20.3729 59.1555 21.1112Z" fill="black"/>
<path d="M50.8438 31.7812C47.122 31.7812 44.0938 34.8095 44.0938 38.5312C44.0938 41.3173 45.7728 43.7414 48.3125 44.7674V48.6562H50V57.0938C50 58.9551 48.4863 60.4688 46.625 60.4688C44.7637 60.4688 43.25 58.9551 43.25 57.0938V55.4062C43.25 52.6143 40.9795 50.3438 38.1875 50.3438C35.3955 50.3438 33.125 52.6143 33.125 55.4062V57.5156C33.125 59.1441 31.8003 60.4688 30.1719 60.4688C28.5434 60.4688 27.2188 59.1441 27.2188 57.5156V51.1445C35.6655 50.7015 42.4062 43.711 42.4062 35.1562V29.25V26.7188V24.1875H37.3438V14.0625C37.3438 11.7363 35.4512 9.84375 33.125 9.84375H19.625C17.2988 9.84375 15.4062 11.7363 15.4062 14.0625V24.1875H10.3438V26.7188V29.25V35.1562C10.3438 43.711 17.0845 50.7015 25.5312 51.1445V57.5156C25.5312 60.0739 27.6136 62.1562 30.1719 62.1562C32.7301 62.1562 34.8125 60.0739 34.8125 57.5156V55.4062C34.8125 53.5449 36.3262 52.0312 38.1875 52.0312C40.0488 52.0312 41.5625 53.5449 41.5625 55.4062V57.0938C41.5625 59.8857 43.833 62.1562 46.625 62.1562C49.417 62.1562 51.6875 59.8857 51.6875 57.0938V48.6562H53.375V44.7657C55.8826 43.7431 57.5938 41.2777 57.5938 38.5312C57.5938 34.8095 54.5655 31.7812 50.8438 31.7812ZM40.7188 25.875V26.7188V27.5625H37.3438V25.875H40.7188ZM17.0938 36.8438H35.6562V39.375C35.6562 40.7706 34.5206 41.9062 33.125 41.9062H19.625C18.2294 41.9062 17.0938 40.7706 17.0938 39.375V36.8438ZM35.6562 35.1562H17.0938V16.5938H35.6562V35.1562ZM19.625 11.5312H33.125C34.5206 11.5312 35.6562 12.6669 35.6562 14.0625V14.9062H17.0938V14.0625C17.0938 12.6669 18.2294 11.5312 19.625 11.5312ZM12.0312 25.875H15.4062V27.5625H12.0312V26.7188V25.875ZM12.0312 35.1562V29.25H15.4062V39.375C15.4062 41.7012 17.2988 43.5938 19.625 43.5938H33.125C35.4512 43.5938 37.3438 41.7012 37.3438 39.375V29.25H40.7188V35.1562C40.7188 43.0656 34.2843 49.5 26.375 49.5C18.4657 49.5 12.0312 43.0656 12.0312 35.1562ZM51.6875 46.9688H50V42.75C50 42.2842 50.378 41.9062 50.8438 41.9062C51.3095 41.9062 51.6875 42.2842 51.6875 42.75V46.9688ZM53.375 42.8968V42.75C53.375 41.3544 52.2393 40.2188 50.8438 40.2188C49.4482 40.2188 48.3125 41.3544 48.3125 42.75V42.9019C46.7693 42.0134 45.7812 40.3791 45.7812 38.5312C45.7812 35.7393 48.0518 33.4688 50.8438 33.4688C53.6357 33.4688 55.9062 35.7393 55.9062 38.5312C55.9062 40.3504 54.9022 42.0033 53.375 42.8968Z" fill="black"/>
</g>
<defs>
<clipPath id="clip0_72_212">
<rect width="72" height="72" fill="white" transform="translate(0.5)"/>
</clipPath>
<clipPath id="clip1_72_212">
<rect width="41.3438" height="22.7812" fill="white" transform="translate(11.1875 25.0312)"/>
</clipPath>
</defs>
</svg>
