<svg width="73" height="72" viewBox="0 0 73 72" fill="none" xmlns="http://www.w3.org/2000/svg">
<g clip-path="url(#clip0_72_154)">
<path fill-rule="evenodd" clip-rule="evenodd" d="M14.7604 16.3471C18.8915 10.7636 24.8225 7.58056 31.5472 5.83176C39.7865 3.68911 48.6052 1.15253 55.8268 5.6676C64.7926 11.2733 73.4236 20.6475 71.9875 31.1159C70.5866 41.329 57.9485 44.0957 49.7061 50.2869C40.3629 57.305 33.2155 71.8054 21.9398 68.709C10.6227 65.6011 8.86993 50.2571 7.27642 38.6351C6.15605 30.4639 9.85633 22.9751 14.7604 16.3471Z" fill="#DDF4FF"/>
<g clip-path="url(#clip1_72_154)">
<g clip-path="url(#clip2_72_154)">
<g clip-path="url(#clip3_72_154)">
<path d="M49.1562 57.9375V60.4688C49.1562 60.9328 48.7766 61.3125 48.3125 61.3125H24.6875C24.2234 61.3125 23.8438 60.9328 23.8438 60.4688V57.9375H31.4375H41.5625H49.1562Z" fill="#969FAA"/>
</g>
<g clip-path="url(#clip4_72_154)">
<path d="M31.4375 54.5625V57.9375H23.8438V56.25C23.8438 55.3219 24.6031 54.5625 25.5312 54.5625H31.4375Z" fill="#969FAA"/>
</g>
<g clip-path="url(#clip5_72_154)">
<path d="M49.1562 56.25V57.9375H41.5625V54.5625H47.4687C48.3969 54.5625 49.1562 55.3219 49.1562 56.25Z" fill="#969FAA"/>
</g>
<g clip-path="url(#clip6_72_154)">
<path d="M41.5625 54.5625V57.9375H31.4375V54.5625V51.1875H41.5625V54.5625Z" fill="#AAB2BD"/>
</g>
<g clip-path="url(#clip7_72_154)">
<path d="M60.125 44.4375V49.5C60.125 50.4281 59.3656 51.1875 58.4375 51.1875H41.5625H31.4375H12.875C11.9469 51.1875 11.1875 50.4281 11.1875 49.5V44.4375H14.5625H28.0625H41.5625H60.125Z" fill="#CCD1D9"/>
</g>
<g clip-path="url(#clip8_72_154)">
<path d="M60.125 44.4375H11.1875V19.125C11.1875 18.1927 11.9427 17.4375 12.875 17.4375H60.125V44.4375Z" fill="#69D6F4"/>
</g>
<g clip-path="url(#clip9_72_154)">
<path d="M46.625 37.6875H50V41.0625H46.625V37.6875Z" fill="#FF826E"/>
</g>
<g clip-path="url(#clip10_72_154)">
<path d="M53.375 30.9375H56.75V34.3125H53.375V30.9375Z" fill="#FF826E"/>
</g>
<g clip-path="url(#clip11_72_154)">
<path d="M53.375 37.6875H56.75V41.0625H53.375V37.6875Z" fill="#B4DD7F"/>
</g>
<g clip-path="url(#clip12_72_154)">
<path d="M46.625 30.9375H50V34.3125H46.625V30.9375Z" fill="#B4DD7F"/>
</g>
<g clip-path="url(#clip13_72_154)">
<path d="M22.1563 22.5C22.1563 22.9219 22.1984 23.3353 22.2828 23.7319L22.2575 23.7403L21.65 23.3775C19.8697 22.3059 18.7812 20.3906 18.7812 18.315V18.2812C18.7812 17.9944 18.7981 17.7159 18.8319 17.4375C19.2453 13.6406 22.4684 10.6875 26.375 10.6875H36.5C36.9641 10.6875 37.3859 10.8731 37.6897 11.1853C38.0019 11.4891 38.1875 11.9109 38.1875 12.375C38.1875 13.6575 37.715 14.8472 36.9134 15.7584C36.1963 16.5937 35.2006 17.1928 34.0531 17.4206L33.9688 17.4375H31.0156C29.0581 17.4375 27.1006 17.1928 25.1938 16.7203C24.8563 16.6359 24.5103 16.5937 24.1644 16.5937C23.0506 16.5937 22.1563 17.4881 22.1563 18.6019V22.5Z" fill="#B27946"/>
</g>
<g clip-path="url(#clip14_72_154)">
<path d="M37.2933 17.4375C37.327 17.716 37.3439 17.9944 37.3439 18.2813V18.315C37.3439 20.3907 36.2555 22.306 34.4752 23.3776L33.8677 23.7404C33.9352 23.3944 33.9689 23.0401 33.9689 22.6772V17.4375L34.0533 17.4207C35.2008 17.1929 36.1964 16.5938 36.9136 15.7585C37.0992 16.2985 37.2342 16.8554 37.2933 17.4375Z" fill="#B27946"/>
</g>
<g clip-path="url(#clip15_72_154)">
<path d="M35.2175 30.7266L34.8125 30.6591L31.4375 30.0938L28.0625 35.1562L24.6875 30.0938L21.3125 30.6591L20.9075 30.7266C17.2456 31.3341 14.5625 34.4981 14.5625 38.2106V44.4375H28.0625H41.5625V38.2106C41.5625 34.4981 38.8794 31.3341 35.2175 30.7266Z" fill="#E6E9ED"/>
</g>
<g clip-path="url(#clip16_72_154)">
<path d="M34.8125 41.0625C35.7445 41.0625 36.5 40.307 36.5 39.375C36.5 38.443 35.7445 37.6875 34.8125 37.6875C33.8805 37.6875 33.125 38.443 33.125 39.375C33.125 40.307 33.8805 41.0625 34.8125 41.0625Z" fill="#FCD770"/>
</g>
<g clip-path="url(#clip17_72_154)">
<path d="M25.2866 27.7144C26.1219 28.1532 27.0753 28.4063 28.0878 28.4063H28.2397C29.1762 28.4063 30.0706 28.1785 30.8553 27.7735L31.4375 30.0938L28.0625 35.1563L24.6875 30.0938L25.2866 27.7144Z" fill="#F0D0B4"/>
</g>
<g clip-path="url(#clip18_72_154)">
<path d="M25.2866 27.7144C23.7678 26.9044 22.6541 25.4616 22.2828 23.7319C22.1984 23.3353 22.1562 22.9219 22.1562 22.5V18.6019C22.1562 17.4881 23.0506 16.5938 24.1644 16.5938C24.5103 16.5938 24.8563 16.6359 25.1938 16.7203C27.1006 17.1928 29.0581 17.4375 31.0156 17.4375H33.9688V22.6772C33.9688 23.04 33.935 23.3944 33.8675 23.7403C33.5384 25.5037 32.3994 26.9803 30.8553 27.7734C30.0706 28.1784 29.1762 28.4062 28.2397 28.4062H28.0878C27.0753 28.4062 26.1219 28.1531 25.2866 27.7144Z" fill="#F0D0B4"/>
</g>
<g clip-path="url(#clip19_72_154)">
<path d="M61.8125 12.375V25.875C61.8125 26.8031 61.0531 27.5625 60.125 27.5625H45.7812L43.5875 30.4903C43.3766 30.7687 43.0391 30.9375 42.6847 30.9375C42.0688 30.9375 41.5625 30.4313 41.5625 29.8153V17.4375V12.375C41.5625 11.4469 42.3219 10.6875 43.25 10.6875H60.125C61.0531 10.6875 61.8125 11.4469 61.8125 12.375Z" fill="#E6E9ED"/>
</g>
<g clip-path="url(#clip20_72_154)">
<path d="M56.75 18.2813V19.9688C56.75 20.4328 56.3703 20.8125 55.9062 20.8125H53.375V23.3438C53.375 23.8078 52.9953 24.1875 52.5312 24.1875H50.8438C50.3797 24.1875 50 23.8078 50 23.3438V20.8125H47.4688C47.0047 20.8125 46.625 20.4328 46.625 19.9688V18.2813C46.625 17.8172 47.0047 17.4375 47.4688 17.4375H50V14.9063C50 14.4422 50.3797 14.0625 50.8438 14.0625H52.5312C52.9953 14.0625 53.375 14.4422 53.375 14.9063V17.4375H55.9062C56.3703 17.4375 56.75 17.8172 56.75 18.2813Z" fill="#FCD770"/>
</g>
</g>
<g clip-path="url(#clip21_72_154)">
<path d="M25.5312 21.6562C25.9972 21.6562 26.375 21.2785 26.375 20.8125C26.375 20.3465 25.9972 19.9688 25.5312 19.9688C25.0653 19.9688 24.6875 20.3465 24.6875 20.8125C24.6875 21.2785 25.0653 21.6562 25.5312 21.6562Z" fill="black"/>
<path d="M30.5938 21.6562C31.0597 21.6562 31.4375 21.2785 31.4375 20.8125C31.4375 20.3465 31.0597 19.9688 30.5938 19.9688C30.1278 19.9688 29.75 20.3465 29.75 20.8125C29.75 21.2785 30.1278 21.6562 30.5938 21.6562Z" fill="black"/>
<path d="M29.7499 23.1446C29.4284 23.7876 28.7821 24.1875 28.0624 24.1875C27.3427 24.1875 26.6964 23.7876 26.3749 23.1446L26.2863 22.9666L24.7769 23.7218L24.8654 23.8998C25.4746 25.1182 26.6998 25.875 28.0624 25.875C29.4251 25.875 30.6502 25.1182 31.2594 23.8989L31.348 23.7209L29.8385 22.9658L29.7499 23.1446Z" fill="black"/>
<path d="M55.9062 16.5938H54.2188V14.9062C54.2188 13.9756 53.4619 13.2188 52.5312 13.2188H50.8438C49.9131 13.2188 49.1562 13.9756 49.1562 14.9062V16.5938H47.4688C46.5381 16.5938 45.7812 17.3506 45.7812 18.2812V19.9688C45.7812 20.8994 46.5381 21.6562 47.4688 21.6562H49.1562V23.3438C49.1562 24.2744 49.9131 25.0312 50.8438 25.0312H52.5312C53.4619 25.0312 54.2188 24.2744 54.2188 23.3438V21.6562H55.9062C56.8369 21.6562 57.5938 20.8994 57.5938 19.9688V18.2812C57.5938 17.3506 56.8369 16.5938 55.9062 16.5938ZM55.9062 19.9688H52.5312V23.3438H50.8438V19.9688H47.4688V18.2812H50.8438V14.9062H52.5312V18.2812L55.9062 18.2838V19.9688Z" fill="black"/>
<path d="M60.125 9.84375H43.25C41.8544 9.84375 40.7188 10.9794 40.7188 12.375V16.5938H38.0112C37.9664 16.3727 37.9133 16.1542 37.8508 15.9382C38.5959 14.9332 39.0312 13.6946 39.0312 12.375C39.0312 10.9794 37.8956 9.84375 36.5 9.84375H26.375C22.3073 9.84375 18.9036 12.737 18.1113 16.5938H12.875C11.4794 16.5938 10.3438 17.7294 10.3438 19.125V49.5C10.3438 50.8956 11.4794 52.0312 12.875 52.0312H30.5938V53.7188H25.5312C24.1357 53.7188 23 54.8544 23 56.25V60.4688C23 61.3994 23.7568 62.1562 24.6875 62.1562H48.3125C49.2432 62.1562 50 61.3994 50 60.4688V56.25C50 54.8544 48.8643 53.7188 47.4688 53.7188H42.4062V52.0312H58.4375C59.8331 52.0312 60.9688 50.8956 60.9688 49.5V28.251C61.9483 27.9017 62.6562 26.9736 62.6562 25.875V12.375C62.6562 10.9794 61.5206 9.84375 60.125 9.84375ZM40.7188 18.2812V29.8128C40.7188 30.8978 41.6022 31.7812 42.6872 31.7812C43.3032 31.7812 43.8921 31.4868 44.2617 30.994L46.2031 28.4062H59.2812V43.5938H42.4062V38.214C42.4062 34.072 39.4413 30.5722 35.3559 29.8913L32.1218 29.3521L31.8282 28.1768C33.19 27.2849 34.1966 25.9028 34.6058 24.282L34.9104 24.0997C36.932 22.8873 38.1875 20.6699 38.1875 18.2812H40.7188ZM20.4688 36.0852C18.5458 36.4776 17.0938 38.1819 17.0938 40.2188V41.9062H18.7812V40.2188C18.7812 38.8232 19.9169 37.6875 21.3125 37.6875C22.7081 37.6875 23.8438 38.8232 23.8438 40.2188V41.9062H25.5312V40.2188C25.5312 38.1819 24.0792 36.4776 22.1562 36.0852V31.3712L24.2884 31.016L27.2188 35.4119V43.5938H15.4062V38.214C15.4062 35.0997 17.503 32.4394 20.4688 31.6792V36.0852ZM28.2397 27.5625H28.0912C25.284 27.5625 23 25.292 23 22.5V18.6002C23 17.9589 23.5214 17.4375 24.1627 17.4375C24.442 17.4375 24.7204 17.4721 24.9913 17.5396C26.9606 18.0315 28.9881 18.2812 31.0165 18.2812H33.125V22.6772C33.125 25.3713 30.9338 27.5625 28.2397 27.5625ZM28.0912 29.25H28.2397C28.9501 29.25 29.6336 29.1336 30.2748 28.9235L30.5279 29.936L28.0625 33.635L25.5962 29.936L25.862 28.8745C26.5606 29.1175 27.3107 29.25 28.0912 29.25ZM28.9062 35.4119L31.8366 31.016L33.9688 31.3712V36.9998C32.9892 37.3492 32.2812 38.2773 32.2812 39.3758C32.2812 40.7714 33.4169 41.9071 34.8125 41.9071C36.2081 41.9071 37.3438 40.7714 37.3438 39.3758C37.3438 38.2773 36.6358 37.3492 35.6562 36.9998V31.6792C38.622 32.4394 40.7188 35.0997 40.7188 38.214V43.5938H28.9062V35.4119ZM35.6562 39.375C35.6562 39.8399 35.2774 40.2188 34.8125 40.2188C34.3476 40.2188 33.9688 39.8399 33.9688 39.375C33.9688 38.9101 34.3476 38.5312 34.8125 38.5312C35.2774 38.5312 35.6562 38.9101 35.6562 39.375ZM36.4241 17.3059C36.4713 17.6341 36.5 17.9682 36.5 18.3125C36.5 19.7544 35.8663 21.1196 34.8125 22.0705V18.0973C35.3964 17.9159 35.9355 17.6425 36.4241 17.3059ZM26.375 11.5312H36.5C36.9649 11.5312 37.3438 11.9101 37.3438 12.375C37.3438 14.4186 35.8891 16.193 33.8852 16.5938H31.0165C29.1248 16.5938 27.2356 16.3609 25.4005 15.9027C24.9963 15.8015 24.5795 15.75 24.1627 15.75C22.5916 15.75 21.3125 17.0291 21.3125 18.6002V22.0832C20.2544 21.1314 19.625 19.7511 19.625 18.2804C19.625 14.5595 22.6532 11.5312 26.375 11.5312ZM12.875 18.2812H17.9392C17.9392 18.2914 17.9375 18.3015 17.9375 18.3125C17.9375 20.6699 19.193 22.8873 21.2146 24.1006L21.5597 24.3073C21.9976 25.8758 22.9933 27.2132 24.3171 28.1008L24.0041 29.3529L20.77 29.8921C16.6837 30.5722 13.7188 34.072 13.7188 38.214V43.5938H12.0312V19.125C12.0312 18.6601 12.4101 18.2812 12.875 18.2812ZM25.5312 55.4062H30.5938V57.0938H24.6875V56.25C24.6875 55.7851 25.0663 55.4062 25.5312 55.4062ZM24.6875 60.4688V58.7812H48.3125V60.4688H24.6875ZM47.4688 55.4062C47.9337 55.4062 48.3125 55.7851 48.3125 56.25V57.0938H42.4062V55.4062H47.4688ZM40.7188 57.0938H32.2812V52.0312H40.7188V57.0938ZM58.4375 50.3438H12.875C12.4101 50.3438 12.0312 49.9649 12.0312 49.5V45.2812H59.2812V49.5C59.2812 49.9649 58.9024 50.3438 58.4375 50.3438ZM60.9688 25.875C60.9688 26.3399 60.5899 26.7188 60.125 26.7188H45.3594L42.9125 29.9815C42.7674 30.1756 42.4071 30.0558 42.4062 29.8119V12.375C42.4062 11.9101 42.7851 11.5312 43.25 11.5312H60.125C60.5899 11.5312 60.9688 11.9101 60.9688 12.375V25.875Z" fill="black"/>
<path d="M57.5938 30.0938H52.5312V35.1562H57.5938V30.0938ZM55.9062 33.4688H54.2188V31.7812H55.9062V33.4688Z" fill="black"/>
<path d="M57.5938 36.8438H52.5312V41.9062H57.5938V36.8438ZM55.9062 40.2188H54.2188V38.5312H55.9062V40.2188Z" fill="black"/>
<path d="M50.8438 30.0938H45.7812V35.1562H50.8438V30.0938ZM49.1562 33.4688H47.4688V31.7812H49.1562V33.4688Z" fill="black"/>
<path d="M50.8438 36.8438H45.7812V41.9062H50.8438V36.8438ZM49.1562 40.2188H47.4688V38.5312H49.1562V40.2188Z" fill="black"/>
<path d="M32.2812 46.9688H37.3438V48.6562H32.2812V46.9688Z" fill="black"/>
<path d="M39.0312 46.9688H40.7188V48.6562H39.0312V46.9688Z" fill="black"/>
</g>
</g>
</g>
<defs>
<clipPath id="clip0_72_154">
<rect width="72" height="72" fill="white" transform="translate(0.5)"/>
</clipPath>
<clipPath id="clip1_72_154">
<rect width="52.3125" height="52.3125" fill="white" transform="translate(10.3438 9.84375)"/>
</clipPath>
<clipPath id="clip2_72_154">
<rect width="50.625" height="50.625" fill="white" transform="translate(11.1875 10.6875)"/>
</clipPath>
<clipPath id="clip3_72_154">
<rect width="25.3125" height="3.375" fill="white" transform="translate(23.8438 57.9375)"/>
</clipPath>
<clipPath id="clip4_72_154">
<rect width="7.59375" height="3.375" fill="white" transform="translate(23.8438 54.5625)"/>
</clipPath>
<clipPath id="clip5_72_154">
<rect width="7.59375" height="3.375" fill="white" transform="translate(41.5625 54.5625)"/>
</clipPath>
<clipPath id="clip6_72_154">
<rect width="10.125" height="6.75" fill="white" transform="translate(31.4375 51.1875)"/>
</clipPath>
<clipPath id="clip7_72_154">
<rect width="48.9375" height="6.75" fill="white" transform="translate(11.1875 44.4375)"/>
</clipPath>
<clipPath id="clip8_72_154">
<rect width="48.9375" height="27" fill="white" transform="translate(11.1875 17.4375)"/>
</clipPath>
<clipPath id="clip9_72_154">
<rect width="3.375" height="3.375" fill="white" transform="translate(46.625 37.6875)"/>
</clipPath>
<clipPath id="clip10_72_154">
<rect width="3.375" height="3.375" fill="white" transform="translate(53.375 30.9375)"/>
</clipPath>
<clipPath id="clip11_72_154">
<rect width="3.375" height="3.375" fill="white" transform="translate(53.375 37.6875)"/>
</clipPath>
<clipPath id="clip12_72_154">
<rect width="3.375" height="3.375" fill="white" transform="translate(46.625 30.9375)"/>
</clipPath>
<clipPath id="clip13_72_154">
<rect width="19.4063" height="13.0528" fill="white" transform="translate(18.7812 10.6875)"/>
</clipPath>
<clipPath id="clip14_72_154">
<rect width="3.47624" height="7.98188" fill="white" transform="translate(33.8677 15.7585)"/>
</clipPath>
<clipPath id="clip15_72_154">
<rect width="27" height="14.3438" fill="white" transform="translate(14.5625 30.0938)"/>
</clipPath>
<clipPath id="clip16_72_154">
<rect width="3.375" height="3.375" fill="white" transform="translate(33.125 37.6875)"/>
</clipPath>
<clipPath id="clip17_72_154">
<rect width="6.75" height="7.44188" fill="white" transform="translate(24.6875 27.7144)"/>
</clipPath>
<clipPath id="clip18_72_154">
<rect width="11.8125" height="11.8125" fill="white" transform="translate(22.1562 16.5938)"/>
</clipPath>
<clipPath id="clip19_72_154">
<rect width="20.25" height="20.25" fill="white" transform="translate(41.5625 10.6875)"/>
</clipPath>
<clipPath id="clip20_72_154">
<rect width="10.125" height="10.125" fill="white" transform="translate(46.625 14.0625)"/>
</clipPath>
<clipPath id="clip21_72_154">
<rect width="52.3125" height="52.3125" fill="white" transform="translate(10.3438 9.84375)"/>
</clipPath>
</defs>
</svg>
