<svg width="73" height="72" viewBox="0 0 73 72" fill="none" xmlns="http://www.w3.org/2000/svg">
<g clip-path="url(#clip0_72_235)">
<path fill-rule="evenodd" clip-rule="evenodd" d="M14.7604 16.3471C18.8915 10.7636 24.8225 7.58056 31.5472 5.83176C39.7865 3.68911 48.6052 1.15253 55.8268 5.6676C64.7926 11.2733 73.4236 20.6475 71.9875 31.1159C70.5866 41.329 57.9485 44.0957 49.7061 50.2869C40.3629 57.305 33.2155 71.8054 21.9398 68.709C10.6227 65.6011 8.86993 50.2571 7.27642 38.6351C6.15605 30.4639 9.85633 22.9751 14.7604 16.3471Z" fill="white"/>
<g clip-path="url(#clip1_72_235)">
<g clip-path="url(#clip2_72_235)">
<g clip-path="url(#clip3_72_235)">
<path d="M33.4175 52.5919H39.5828V60.6269H33.4175V52.5919Z" fill="#C7C2C9"/>
<path d="M59.5449 54.174H13.4551C11.7076 54.174 10.291 52.7574 10.291 51.0099V24.1542C10.291 22.4067 11.7076 20.9901 13.4551 20.9901H59.5449C61.2924 20.9901 62.709 22.4067 62.709 24.1542V51.0099C62.709 52.7574 61.2924 54.174 59.5449 54.174Z" fill="#655E67"/>
<path d="M59.5449 20.9901H56.3809C58.1284 20.9901 59.5449 22.4068 59.5449 24.1542V51.01C59.5449 52.7574 58.1284 54.1741 56.3809 54.1741H59.5449C61.2924 54.1741 62.709 52.7574 62.709 51.01V24.1542C62.709 22.4067 61.2924 20.9901 59.5449 20.9901Z" fill="#544F56"/>
<path d="M13.4551 50.6935V24.4706C13.4551 24.2958 13.5967 24.1542 13.7715 24.1542H59.2285C59.4033 24.1542 59.5449 24.2958 59.5449 24.4706V50.6936C59.5449 50.8684 59.4033 51.01 59.2285 51.01H13.7715C13.5967 51.0099 13.4551 50.8683 13.4551 50.6935Z" fill="#ECF5FF"/>
<path d="M59.2285 24.1542H56.0645C56.2392 24.1542 56.3809 24.2958 56.3809 24.4706V50.6936C56.3809 50.8684 56.2392 51.01 56.0645 51.01H59.2285C59.4033 51.01 59.5449 50.8684 59.5449 50.6936V24.4706C59.5449 24.2958 59.4033 24.1542 59.2285 24.1542Z" fill="#DCEAFC"/>
<path d="M41.3728 59.0449H31.627C30.0542 59.0449 28.7793 60.3198 28.7793 61.8926C28.7793 62.0673 28.9209 62.209 29.0957 62.209H43.904C44.0788 62.209 44.2205 62.0673 44.2205 61.8926C44.2205 60.3198 42.9454 59.0449 41.3728 59.0449Z" fill="#655E67"/>
<path d="M41.373 59.0449H38.209C39.7817 59.0449 41.0566 60.3198 41.0566 61.8926C41.0566 62.0673 40.915 62.209 40.7402 62.209H43.9043C44.0791 62.209 44.2207 62.0673 44.2207 61.8926C44.2207 60.3198 42.9457 59.0449 41.373 59.0449Z" fill="#544F56"/>
<g clip-path="url(#clip4_72_235)">
<path d="M52.8397 51.0099V42.4546C52.8397 40.1914 51.3934 38.1809 49.2463 37.4591L41.611 34.8927C40.8953 34.6521 40.4132 33.9819 40.4132 33.2275V30.3666H32.5872V33.2275C32.5872 33.9819 32.1051 34.6521 31.3894 34.8927L23.7541 37.4591C21.6069 38.1809 20.1606 40.1914 20.1606 42.4546V51.0099H52.8397Z" fill="#B3E59F"/>
<g clip-path="url(#clip5_72_235)">
<path d="M49.246 37.4592L41.6107 34.8927C40.895 34.6521 40.4129 33.982 40.4129 33.2275V30.3667H32.5869V31.9487H37.2488V34.8096C37.2488 35.564 37.7309 36.2341 38.4467 36.4747L46.082 39.0412C48.2291 39.7629 49.6754 41.7735 49.6754 44.0366V51.0099H52.8395V42.4546C52.8395 40.1915 51.3932 38.181 49.246 37.4592Z" fill="#95D6A4"/>
</g>
<path d="M31.3301 34.9126L36.1407 39.7184C36.3878 39.9652 36.7881 39.9652 37.0352 39.7184L41.8016 34.9569L41.6109 34.8928C40.8951 34.6522 40.413 33.9821 40.413 33.2277V30.3668H32.5871V33.2277C32.5871 33.9821 32.105 34.6522 31.3892 34.8928L31.3301 34.9126Z" fill="#F1CCBD"/>
<path d="M37.249 34.8096C37.249 35.564 37.7311 36.2342 38.4468 36.4747L39.8201 36.9364L41.8017 34.9568L41.6109 34.8927C40.8952 34.6521 40.4131 33.982 40.4131 33.2275V30.3667H37.249V34.8096Z" fill="#EAAD9C"/>
<g clip-path="url(#clip6_72_235)">
<path d="M45.69 20.5585H27.3101V13.781C27.3101 11.5773 29.0965 9.79102 31.3 9.79102H41.7C43.9037 9.79102 45.69 11.5774 45.69 13.781V20.5585Z" fill="#C17D4F"/>
<path d="M41.7002 9.79102H38.5361C40.7398 9.79102 42.5261 11.5774 42.5261 13.781V20.5585H45.6902V13.781C45.6903 11.5774 43.9039 9.79102 41.7002 9.79102Z" fill="#B16E3D"/>
<g clip-path="url(#clip7_72_235)">
<path d="M36.4676 31.857C31.3885 31.8395 27.3101 27.6508 27.3101 22.5768V19.3622C29.1424 19.3676 31.8954 19.136 34.9396 17.9112C36.3596 17.3398 37.5521 16.6694 38.5194 16.0282C38.7285 15.8895 39.0083 15.9385 39.1622 16.1366C39.6486 16.7632 40.4657 17.6307 41.7046 18.3176C43.3724 19.2422 44.9329 19.3563 45.6901 19.3621V22.6763C45.69 27.7575 41.5581 31.8746 36.4676 31.857Z" fill="#F1CCBD"/>
</g>
<g clip-path="url(#clip8_72_235)">
<path d="M42.5258 18.714V21.0944C42.5258 26.1755 38.3937 30.2926 33.3034 30.2749C32.4816 30.2721 31.6861 30.1595 30.9297 29.9521C32.4648 31.1386 34.3816 31.8498 36.4674 31.857C41.5579 31.8746 45.6898 27.7575 45.6898 22.6765C45.6898 21.0443 45.6898 20.9942 45.6898 19.3622C45.0589 19.3573 43.8697 19.2754 42.5258 18.714Z" fill="#EAAD9C"/>
</g>
</g>
<path d="M46.49 48.005C48.0583 48.005 49.3297 46.735 49.3297 45.1683C49.3297 43.6016 48.0583 42.3316 46.49 42.3316C44.9217 42.3316 43.6504 43.6016 43.6504 45.1683C43.6504 46.735 44.9217 48.005 46.49 48.005Z" fill="#F1EFF1"/>
</g>
</g>
<path d="M59.5449 20.1987H49.3809C48.9439 20.1987 48.5899 20.5527 48.5899 20.9897C48.5899 21.4266 48.9439 21.7807 49.3809 21.7807H59.5449C60.8534 21.7807 61.918 22.8453 61.918 24.1537V51.0103C61.918 52.3188 60.8534 53.3834 59.5449 53.3834H39.5909C39.5881 53.3834 39.5855 53.3829 39.5827 53.3829C39.58 53.3829 39.5774 53.3834 39.5746 53.3834H33.4256C33.4228 53.3834 33.4202 53.3829 33.4175 53.3829C33.4147 53.3829 33.4121 53.3834 33.4093 53.3834H13.4551C12.1466 53.3834 11.082 52.3188 11.082 51.0103V24.1537C11.082 22.8453 12.1466 21.7807 13.4551 21.7807H26.519V22.5768C26.519 22.8413 26.5301 23.1033 26.5502 23.3627H13.7715C13.1608 23.3627 12.6641 23.8595 12.6641 24.4702V44.0886C12.6641 44.5256 13.0181 44.8796 13.4551 44.8796C13.892 44.8796 14.2461 44.5256 14.2461 44.0886V24.9448H26.7993C27.4754 27.7575 29.3262 30.1158 31.7961 31.4551V33.2273C31.7961 33.6426 31.5313 34.0104 31.1368 34.1429L23.5021 36.71C21.0304 37.5404 19.3697 39.8491 19.3697 42.4549V50.2195H14.2461V47.7801C14.2461 47.3432 13.892 46.9891 13.4551 46.9891C13.0181 46.9891 12.6641 47.3432 12.6641 47.7801V50.6941C12.6641 51.3048 13.1608 51.8015 13.7715 51.8015H59.2285C59.8392 51.8015 60.3359 51.3048 60.3359 50.6941V24.4702C60.3359 23.8595 59.8392 23.3627 59.2285 23.3627H46.4573C46.4727 23.1353 46.4809 22.9066 46.4809 22.6764V13.781C46.481 11.1447 44.3363 9 41.7 9H31.3001C28.6638 9 26.5191 11.1447 26.5191 13.781V20.1987H13.4551C11.2742 20.1987 9.5 21.9729 9.5 24.1537V51.0103C9.5 53.1912 11.2742 54.9654 13.4551 54.9654H32.6262V58.2539H31.627C29.6207 58.2539 27.9884 59.8862 27.9884 61.8926C27.9884 62.5032 28.4851 63 29.0958 63H43.904C44.5147 63 45.0114 62.5032 45.0114 61.8926C45.0114 59.8862 43.3791 58.2539 41.3728 58.2539H40.3736V54.9654H59.5449C61.7258 54.9654 63.5 53.1912 63.5 51.0103V24.1537C63.5 21.9729 61.7258 20.1987 59.5449 20.1987ZM52.0482 50.2193H20.9518V42.4547C20.9518 40.5291 22.1792 38.8232 24.0063 38.2095L25.7933 37.6086C25.6909 38.1848 25.6481 38.7698 25.6704 39.3594C25.6907 39.8985 25.7639 40.4329 25.8888 40.9566C24.1592 41.4108 22.8796 42.9872 22.8796 44.8573V47.4605C22.8796 48.1969 23.4787 48.7961 24.2151 48.7961H24.9542C25.3912 48.7961 25.7452 48.442 25.7452 48.0051C25.7452 47.5681 25.3912 47.2141 24.9542 47.2141H24.4616V44.8573C24.4616 43.5066 25.5598 42.4078 26.9103 42.4067C26.911 42.4067 26.9116 42.4068 26.9123 42.4068C26.9132 42.4068 26.9143 42.4067 26.9152 42.4067C28.2651 42.4084 29.3627 43.507 29.3627 44.8572V47.214H28.8701C28.4331 47.214 28.0791 47.568 28.0791 48.005C28.0791 48.4419 28.4331 48.796 28.8701 48.796H29.6092C30.3456 48.796 30.9447 48.1968 30.9447 47.4604V44.8572C30.9447 42.8335 29.4462 41.1538 27.5008 40.8679C27.3553 40.3563 27.2713 39.8308 27.2512 39.2995C27.2218 38.5227 27.3284 37.7548 27.5663 37.0123L31.1172 35.8183L35.5815 40.2779C36.1362 40.8321 37.0392 40.8321 37.594 40.2778L42.0138 35.8625L45.8967 37.168C46.1793 37.9073 46.3236 38.704 46.3162 39.4921C46.3095 40.1996 46.1779 40.9133 45.9367 41.5824C44.1964 41.8492 42.8591 43.3555 42.8591 45.168C42.8591 47.1683 44.4878 48.7957 46.4897 48.7957C48.4916 48.7957 50.1203 47.1682 50.1203 45.168C50.1203 43.5404 49.0419 42.1599 47.5617 41.7019C47.7746 40.9894 47.8913 40.2456 47.8983 39.507C47.9038 38.9299 47.8432 38.3493 47.7219 37.7815L48.9939 38.2092C50.8208 38.8229 52.0482 40.5288 52.0482 42.4544V50.2193ZM40.4932 35.1458L36.5879 39.047L32.5973 35.0606C33.0848 34.5909 33.3781 33.9358 33.3781 33.2271V32.1417C34.3503 32.4662 35.3876 32.6442 36.4648 32.6479C36.4767 32.6479 36.4885 32.648 36.5004 32.648C37.5772 32.648 38.6276 32.4787 39.6219 32.1529V33.2271C39.6219 33.9792 39.9508 34.6723 40.4932 35.1458ZM46.4885 43.1227H46.4894H46.4904C47.6197 43.123 48.5384 44.0406 48.5384 45.1683C48.5384 46.2963 47.6194 47.214 46.4898 47.214C45.3602 47.214 44.4413 46.2963 44.4413 45.1683C44.4413 44.0407 45.3596 43.1234 46.4885 43.1227ZM46.2226 24.9448H58.7539V50.2193H53.6302V42.4547C53.6302 39.8489 51.9695 37.5402 49.498 36.7098L41.8628 34.1427C41.4686 34.0102 41.2038 33.6424 41.2038 33.2271V31.4764C42.0555 31.0206 42.8451 30.4374 43.5486 29.7362C44.8915 28.3982 45.8053 26.7458 46.2226 24.9448ZM28.101 13.781C28.101 12.017 29.536 10.582 31.3 10.582H41.6999C43.4639 10.582 44.8989 12.017 44.8989 13.781V18.5219C44.0951 18.4304 43.1045 18.1894 42.0881 17.6259C41.1928 17.1296 40.4186 16.4654 39.7869 15.6518C39.3811 15.1286 38.6322 15.0043 38.0822 15.3689C36.9993 16.0868 35.8426 16.6951 34.6442 17.1773C32.5671 18.013 30.3694 18.4752 28.101 18.5568V13.781ZM28.101 20.1412C30.573 20.0588 32.9691 19.5567 35.2348 18.645C36.4438 18.1586 37.6136 17.5534 38.7158 16.8447C39.4453 17.7273 40.3206 18.455 41.321 19.0095C42.6269 19.7333 43.898 20.0182 44.899 20.1128V22.6764C44.899 24.9211 44.0229 27.0304 42.432 28.6157C41.7491 29.2963 40.9699 29.8441 40.1256 30.2485C40.0907 30.2621 40.0569 30.2778 40.0248 30.296C38.9261 30.8042 37.72 31.0707 36.4704 31.0659H36.4703C31.8555 31.05 28.101 27.2417 28.101 22.5767C28.101 22.5664 28.1006 20.1494 28.101 20.1412ZM34.2083 54.9654H38.7916V58.2539H34.2083V54.9654ZM41.3729 59.8359C42.3436 59.8359 43.1594 60.5119 43.3742 61.418H29.6258C29.8405 60.5119 30.6563 59.8359 31.6271 59.8359H41.3729Z" fill="black"/>
</g>
</g>
</g>
<defs>
<clipPath id="clip0_72_235">
<rect width="72" height="72" fill="white" transform="translate(0.5)"/>
</clipPath>
<clipPath id="clip1_72_235">
<rect width="54" height="54" fill="white" transform="translate(9.5 9)"/>
</clipPath>
<clipPath id="clip2_72_235">
<rect width="54" height="54" fill="white" transform="translate(9.5 9)"/>
</clipPath>
<clipPath id="clip3_72_235">
<rect width="52.418" height="52.418" fill="white" transform="translate(10.291 9.79102)"/>
</clipPath>
<clipPath id="clip4_72_235">
<rect width="32.6791" height="41.2189" fill="white" transform="translate(20.1606 9.79102)"/>
</clipPath>
<clipPath id="clip5_72_235">
<rect width="20.2525" height="20.6432" fill="white" transform="translate(32.5869 30.3667)"/>
</clipPath>
<clipPath id="clip6_72_235">
<rect width="18.38" height="22.066" fill="white" transform="translate(27.3101 9.79102)"/>
</clipPath>
<clipPath id="clip7_72_235">
<rect width="18.38" height="15.9077" fill="white" transform="translate(27.3101 15.9493)"/>
</clipPath>
<clipPath id="clip8_72_235">
<rect width="14.7602" height="13.143" fill="white" transform="translate(30.9297 18.714)"/>
</clipPath>
</defs>
</svg>
