<svg width="73" height="72" viewBox="0 0 73 72" fill="none" xmlns="http://www.w3.org/2000/svg">
<g clip-path="url(#clip0_72_268)">
<path fill-rule="evenodd" clip-rule="evenodd" d="M14.7604 16.3471C18.8915 10.7636 24.8225 7.58056 31.5472 5.83176C39.7865 3.68911 48.6052 1.15253 55.8268 5.6676C64.7926 11.2733 73.4236 20.6475 71.9875 31.1159C70.5866 41.329 57.9485 44.0957 49.7061 50.2869C40.3629 57.305 33.2155 71.8054 21.9398 68.709C10.6227 65.6011 8.86993 50.2571 7.27642 38.6351C6.15605 30.4639 9.85633 22.9751 14.7604 16.3471Z" fill="#DDF4FF"/>
<path d="M50 44.1V55.8C50 57.2913 48.7913 58.5 47.3 58.5H25.7C24.2087 58.5 23 57.2913 23 55.8V16.2001C23 14.7087 24.2087 13.5001 25.7 13.5001H47.3C48.7913 13.5001 50 14.7087 50 16.2001V44.1Z" fill="#B2DECF"/>
<path d="M50 20.7H23V51.2999H50V20.7Z" fill="#29ABE2"/>
<path d="M14.0002 39.6H23.9003L29.3003 43.1999V39.6H32.0003C32.9947 39.6 33.8003 38.7945 33.8003 37.7999V26.9999C33.8003 26.0055 32.9948 25.1999 32.0003 25.1999H14.0002C13.0058 25.1999 12.2002 26.0054 12.2002 26.9999V37.7999C12.2002 38.7945 13.0057 39.6 14.0002 39.6Z" fill="#0071BC"/>
<path d="M58.9998 44.1H49.0997L43.6997 47.7V44.1H40.9997C40.0053 44.1 39.1997 43.2946 39.1997 42.3V29.7001C39.1997 28.7056 40.0052 27.9 40.9997 27.9H58.9998C59.9942 27.9 60.7998 28.7055 60.7998 29.7001V42.3001C60.7998 43.2946 59.9944 44.1 58.9998 44.1Z" fill="#E6E6E6"/>
<path d="M45.5 34.1999H48.2V31.4999H51.8001V34.1999H54.5001V37.8H51.8001V40.5H48.2V37.8H45.5V34.1999Z" fill="#0071BC"/>
<path d="M19.4001 27.9H17.6001V29.7001H19.4001V27.9Z" fill="black"/>
<path d="M30.2002 27.9H21.2002V29.7001H30.2002V27.9Z" fill="black"/>
<path d="M30.1998 31.4999H15.7998V33.3H30.1998V31.4999Z" fill="black"/>
<path d="M26.5998 35.1H15.7998V36.9001H26.5998V35.1Z" fill="black"/>
<path d="M37.4001 54H35.6001V55.8H37.4001V54Z" fill="black"/>
<path d="M39.1999 16.2001H37.3999V18.0001H39.1999V16.2001Z" fill="black"/>
<path d="M35.6003 16.2001H33.8003V18.0001H35.6003V16.2001Z" fill="black"/>
<path d="M22.0998 16.2V24.3H13.9998C12.5085 24.3 11.2998 25.5087 11.2998 27V37.8C11.2998 39.2913 12.5085 40.5 13.9998 40.5H22.0998V55.8C22.0998 57.7881 23.7117 59.4 25.6998 59.4H47.2998C49.2879 59.4 50.8997 57.7881 50.8997 55.8V45H58.9997C60.4911 45 61.6997 43.7914 61.6997 42.3V29.7C61.6997 28.2087 60.4911 27 58.9997 27H50.8997V16.2C50.8997 14.2119 49.2879 12.6 47.2998 12.6H25.6998C23.7117 12.5999 22.0998 14.2119 22.0998 16.2ZM13.0997 37.8V27C13.0997 26.5032 13.5029 26.1 13.9997 26.1H31.9997C32.4965 26.1 32.8997 26.5032 32.8997 27V37.8C32.8997 38.2968 32.4965 38.7 31.9997 38.7H29.2997C28.803 38.7 28.3998 39.1032 28.3998 39.5999V41.5179L24.3992 38.8512C24.2507 38.7531 24.077 38.7 23.8997 38.7H13.9998C13.5029 38.7 13.0997 38.2968 13.0997 37.8ZM47.2998 57.6H25.6998C24.7053 57.6 23.8997 56.7945 23.8997 55.7999V52.2H49.0997V55.7999C49.0998 56.7945 48.2942 57.6 47.2998 57.6ZM59.8998 29.7V42.3C59.8998 42.7968 59.4966 43.2 58.9998 43.2H49.0998C48.9225 43.2 48.7488 43.253 48.6003 43.3512L44.5998 46.0179V44.1C44.5998 43.6032 44.1966 43.2 43.6998 43.2H40.9998C40.503 43.2 40.0998 42.7968 40.0998 42.3V29.7C40.0998 29.2032 40.503 28.8 40.9998 28.8H58.9998C59.4966 28.7999 59.8998 29.2031 59.8998 29.7ZM40.9998 27C39.5085 27 38.2998 28.2087 38.2998 29.7V42.3C38.2998 43.7914 39.5085 45 40.9998 45H42.7998V47.7C42.7998 48.1968 43.2031 48.6 43.6998 48.6C43.8781 48.6 44.0518 48.5478 44.1993 48.4488L49.0998 45.18V50.3999H23.8997V40.6799L28.8002 43.9469C29.2134 44.2233 29.7722 44.1117 30.0486 43.6976C30.1466 43.55 30.1998 43.3772 30.1998 43.1999V40.4999H31.9998C33.4912 40.4999 34.6998 39.2912 34.6998 37.7999V26.9999C34.6998 25.5086 33.4912 24.2999 31.9998 24.2999H23.8998V21.5999H49.0998V26.9999H40.9998V27ZM49.0998 16.2V19.8H23.8997V16.2C23.8997 15.2055 24.7052 14.4 25.6998 14.4H47.2998C48.2942 14.4 49.0998 15.2054 49.0998 16.2Z" fill="black"/>
<path d="M18.5 56.7C18.5036 60.1777 21.3224 62.9964 24.8 63V61.2C22.316 61.1972 20.3027 59.1839 20.2999 56.6999V49.5H18.5V56.7Z" fill="black"/>
<path d="M20.3 45.9001H18.5V47.7001H20.3V45.9001Z" fill="black"/>
<path d="M54.5001 15.3C54.4965 11.8224 51.6776 9.00359 48.2 9H45.5V10.8H48.2C50.684 10.8028 52.6973 12.8161 52.7 15.3001V19.8H54.5001V15.3Z" fill="black"/>
<path d="M54.4997 21.6H52.6997V23.4001H54.4997V21.6Z" fill="black"/>
<path d="M45.5 38.7H47.3V40.5C47.3 40.9968 47.7032 41.4 48.2 41.4H51.7999C52.2967 41.4 52.6999 40.9968 52.6999 40.5V38.7H54.4999C54.9967 38.7 55.3999 38.2968 55.3999 37.8V34.2001C55.3999 33.7033 54.9967 33.3001 54.4999 33.3001H52.7V31.5001C52.7 31.0033 52.2968 30.6001 51.8 30.6001H48.2001C47.7033 30.6001 47.3001 31.0033 47.3001 31.5001V33.3H45.5001C45.0033 33.3 44.6001 33.7032 44.6001 34.2V37.7999C44.6 38.2968 45.0032 38.7 45.5 38.7ZM46.4 35.1H48.2001C48.6968 35.1 49.1 34.6968 49.1 34.2001V32.4H50.9001V34.2001C50.9001 34.6968 51.3033 35.1 51.8 35.1H53.6001V36.9001H51.8C51.3033 36.9001 50.9001 37.3033 50.9001 37.8V39.6001H49.1V37.8C49.1 37.3033 48.6968 36.9001 48.2001 36.9001H46.4V35.1Z" fill="black"/>
</g>
<defs>
<clipPath id="clip0_72_268">
<rect width="72" height="72" fill="white" transform="translate(0.5)"/>
</clipPath>
</defs>
</svg>
